<?xml version="1.0" encoding="UTF-8"?>
<!-- Generated by Pixelmator Pro 3.7.1 -->
<svg width="300" height="300" viewBox="0 0 300 300" xmlns="http://www.w3.org/2000/svg">
    <g id="Group">
        <path id="Path" fill="#000000" stroke="none" d="M 170.979507 236.778809 C 172.634766 234.461426 174.741226 231.316406 176.433105 229.16748 C 179.81105 224.269073 183.439468 219.319366 186.905289 214.459015 L 207.921402 184.984894 L 215.938492 173.739273 C 218.878433 169.612808 220.959976 166.853043 223.432632 162.375015 C 225.203629 159.183121 226.765152 155.881363 228.106949 152.48732 C 228.817398 150.6548 229.401871 148.750504 230.097672 146.897476 C 231.213882 142.908859 232.149918 139.390015 232.788589 135.286987 C 235.630386 116.367203 232.03273 97.041367 222.571304 80.412323 C 211.614273 61.184052 193.551285 47.020767 172.264175 40.965393 C 150.826187 35.009766 127.895668 37.911499 108.617592 49.019409 C 89.308609 60.218277 75.157188 78.538055 69.198502 100.049438 C 63.150311 121.440399 65.971451 144.365646 77.025162 163.652359 C 78.973549 167.022964 81.11676 169.926285 83.382141 173.080093 L 90.179604 182.576675 L 114.087463 215.997086 L 135.369293 245.723145 L 141.973267 254.985367 C 142.228043 255.344147 142.488754 255.724731 142.756821 256.116089 C 145.194351 259.6745 148.240875 264.121979 152.983902 261.14209 C 155.15773 259.77832 158.48732 254.320313 160.094254 252.055664 L 170.979507 236.778809 Z M 186.804199 120.218994 C 187.753418 140.557037 172.025391 157.809082 151.6875 158.740723 C 131.373184 159.672363 114.146782 143.968216 113.198441 123.655365 C 112.250099 103.342529 127.938431 86.102341 148.250977 85.136139 C 168.587418 84.168747 185.853516 99.880814 186.804199 120.218994 Z"/>
        <path id="path1" fill="#303030" stroke="none" d="M 142.819778 40.016907 C 143.718613 39.73111 145.299164 39.773285 146.313736 39.719391 C 155.049332 39.25473 164.055191 40.42514 172.466324 42.794983 C 173.705582 43.144043 177.04689 44.054291 177.969742 44.773529 C 175.662613 44.06015 163.939468 40.461029 162.432144 40.997314 L 162.358902 41.194336 L 162.481949 41.201508 C 165.055679 41.370422 167.775894 42.093323 170.270523 42.727722 C 190.872086 47.963806 209.006851 61.960541 219.877457 80.157562 C 220.872086 81.822357 221.712906 84.005554 222.982925 85.679733 C 223.491226 86.349457 224.118164 89.138229 224.781754 89.990479 C 225.498062 91.640762 226.92189 94.836914 227.042007 96.552673 C 227.308594 96.635437 227.175293 96.61084 227.437515 96.63208 C 228.008804 98.878693 228.448257 100.713272 229.293472 102.874207 C 229.185074 103.098038 229.07814 103.322891 228.974136 103.548615 C 229.188004 103.816544 229.281754 103.906479 229.425293 104.213959 L 229.250977 104.325562 C 228.909668 104.040512 228.744141 103.947632 228.481934 103.59079 L 228.852554 103.208618 C 228.679703 101.956177 227.857925 100.249054 227.282242 99.108521 L 227.462418 98.736603 C 227.184097 98.185669 227.10939 98.200912 226.959976 97.580841 C 226.413589 95.31488 225.260757 93.113068 224.479996 90.9095 C 224.052277 89.705978 223.001968 88.765411 222.977066 87.42244 C 223.073746 85.308075 220.841324 85.763214 220.580597 84.545349 C 220.202667 83.720627 217.854523 79.277618 217.240753 79.002075 L 217.160187 79.44725 C 216.498077 80.209412 216.643097 79.972534 216.643097 80.967316 C 213.534683 76.047348 210.167023 71.36438 206.119644 67.120743 C 186.619644 46.672119 156.572784 38.129883 129.323303 45.902771 C 117.609978 49.243927 106.777748 55.215942 97.734688 63.435181 C 85.398361 74.863617 76.853203 89.792267 73.246162 106.217422 C 72.383072 110.08812 72.12204 113.337738 71.645958 117.204773 C 71.096352 121.669617 71.285019 124.457214 71.69606 128.891724 C 72.86911 141.545197 76.774384 153.596176 83.67511 164.292465 C 84.61261 165.754364 85.9506 167.457993 86.991524 168.900864 L 93.278778 177.629868 L 110.834793 202.311005 C 112.093681 204.060028 118.88147 213.150848 119.345238 214.590805 C 123.568527 220.020981 128.200806 226.949692 132.321701 232.624496 C 135.754562 237.331024 139.162079 242.056625 142.544113 246.801254 C 144.346161 249.311996 146.449966 252.090805 148.116226 254.657211 L 147.89357 254.381821 C 147.874527 255.993149 147.8423 257.605927 147.798355 259.217285 C 148.047379 259.475067 148.605484 259.858856 148.749039 260.072754 C 146.444397 259.086914 145.977127 257.749512 144.623016 255.810043 L 140.752304 250.365219 L 125.415398 228.927231 L 94.165741 185.266098 L 85.518181 173.172348 C 81.877312 168.074692 78.68351 163.760727 75.928581 158.040512 C 70.889961 147.581528 67.670227 134.479233 67.664078 122.822601 C 67.768959 105.149109 73.422974 87.955063 83.827606 73.668289 C 84.763206 72.383179 88.091766 68.044159 89.219994 66.911835 C 91.005928 64.748718 95.774429 60.372345 97.92263 58.590942 C 111.159103 47.614426 125.767838 41.686951 142.819794 40.016876 Z"/>
        <path id="path2" fill="#303030" stroke="none" d="M 129.907761 157.59375 C 129.415283 157.316895 127.935791 156.751465 127.397751 156.666504 L 127.321136 156.259277 L 127.105217 156.147934 L 126.98745 155.727524 L 127.321136 155.689438 L 127.330948 155.594223 C 126.613319 155.373047 125.548378 155.337875 125.18158 155.036118 C 125.510002 154.981918 125.838707 154.930649 126.168007 154.882309 C 125.663963 154.454575 124.860931 154.653793 124.612793 154.319809 L 125.030273 154.183578 C 124.794144 153.152328 122.872704 153.848129 122.779541 152.269028 C 122.760941 151.952621 122.690041 151.773911 122.442329 151.593735 L 122.193893 151.627426 C 121.608978 151.198227 121.024803 150.082016 121.100533 149.361313 C 121.611473 149.238266 122.321617 149.976547 122.840179 150.263657 C 122.884857 150.534653 122.895264 150.667953 122.907997 150.943344 L 123.223091 151.376938 L 123.111183 151.49852 C 122.721817 151.201157 122.548828 150.859848 122.280907 150.448227 L 122.175293 150.499496 C 122.355324 151.492661 122.836082 151.196777 122.945213 152.244125 C 124.136131 152.359848 124.778458 152.824203 125.76635 153.430649 C 125.442772 153.115707 123.788078 151.532211 123.657997 151.218735 C 123.356102 151.139633 129.434616 155.358383 130.197067 155.825668 L 130.279678 155.758286 C 129.344666 154.718246 128.210587 154.160156 127.07299 153.347153 C 125.87944 152.496094 124.745354 151.564453 123.67865 150.558105 C 102.192467 130.226654 109.653503 94.616455 137.728409 85.17128 C 140.872406 84.113525 148.709457 82.415909 151.666977 83.494171 L 151.623032 83.647842 C 150.581528 83.575043 149.789047 83.515717 148.735825 83.546326 C 128.910324 84.123474 113.27005 99.197311 111.595879 118.99173 C 110.797539 128.975967 113.950623 138.874649 120.37645 146.557617 C 129.423477 157.293457 143.415512 162.593246 157.473618 159.773438 C 177.499496 155.756836 190.653793 137.526413 188.150375 117.171387 C 186.061508 100.186081 172.605453 86.162399 155.43895 83.864059 C 154.494125 83.738373 153.353012 83.594971 152.406723 83.67392 L 152.409653 83.403229 C 153.291489 82.863129 155.824203 83.80986 156.830551 83.842819 C 158.340805 83.892334 160.015121 84.41864 161.462387 84.865433 C 170.544418 87.655518 178.291977 93.673981 183.241684 101.784821 C 184.185043 103.351013 184.913086 105.097702 185.752426 106.73407 C 186.00145 107.217621 186.530258 108.06781 186.670883 108.447205 L 186.777817 108.382599 L 186.672348 108.1409 C 186.480453 107.69545 186.420395 106.724411 186.309067 106.551987 C 184.293457 103.432159 183.172836 100.035187 180.540527 97.292999 C 180.193344 96.931335 178.980453 95.793732 178.888184 95.443207 L 179.184082 95.43222 C 179.018555 94.950867 176.166504 93.272156 175.976074 92.45755 C 175.895493 92.113907 175.49707 91.510834 175.085449 91.4534 C 172.82959 91.137878 172.839844 88.930511 171.75293 88.138474 L 171.618164 88.266632 L 171.830566 89.430603 L 171.700195 89.4552 C 171.509766 89.288361 171.317871 89.151688 171.098145 89.026611 C 170.881332 88.581879 170.846191 88.731293 170.919434 88.385132 L 171.259277 88.824448 L 171.394043 88.749451 L 171.394043 88.121918 C 170.736328 87.640259 170.280762 87.782211 169.650879 87.182358 C 169.237793 86.787872 168.228516 86.228455 167.696777 85.905609 C 167.753906 85.467163 167.790527 85.667267 167.595703 85.282166 L 167.803726 85.148422 C 201.766113 100.372681 198.883316 148.542465 165.202164 161.169418 C 154.6465 165.187485 142.930679 164.863754 132.613205 160.270004 C 127.349136 157.879395 121.816719 153.826157 118.131172 149.355453 L 118.138786 149.184067 C 121.268143 152.383286 124.24382 155.411118 128.18425 157.602524 C 129.209641 158.172348 129.649536 158.617676 130.807495 159.026367 L 130.987961 159.005844 L 130.953827 158.809555 C 130.478195 158.526855 130.138351 158.437485 129.94162 158.000977 Z"/>
        <path id="path3" fill="#1e1e1e" stroke="none" d="M 117.224998 96.388763 C 117.372513 94.350586 119.573883 92.544739 121.250542 91.576324 L 121.423538 91.478317 L 121.401131 91.36554 C 120.950401 91.484909 120.679398 91.579407 120.206841 91.591858 L 120.227051 91.37915 C 120.529694 91.114746 121.050438 91.0793 121.472748 90.998581 C 121.85463 90.471817 121.928169 90.393005 122.492126 90.074707 C 122.490807 89.771332 122.472351 89.928802 122.560539 89.604187 C 123.806679 88.817413 127.141251 86.193298 128.311661 85.768646 L 128.508972 85.902527 L 128.544861 86.037445 L 128.654877 86.080505 C 128.899063 85.52298 128.909897 85.509369 129.280502 85.024063 C 130.666397 84.869965 131.853943 84.106918 133.088654 83.447296 L 133.246277 83.498291 L 132.795975 84.15921 C 133.415894 83.920303 134.429123 82.629913 134.815704 82.562393 C 135.888855 82.375183 137.225815 81.611847 138.125961 81.350098 C 144.518539 79.491791 151.142563 79.252869 157.68895 80.374207 C 159.196274 80.632462 160.942368 80.897308 162.332504 81.603073 C 163.371063 82.199402 163.406235 81.835983 164.204575 82.130402 C 165.002914 82.424408 166.946762 83.31604 167.29393 84.045105 C 166.737289 84.058441 166.697739 83.566681 166.514633 83.539734 C 166.202621 83.494049 165.357407 83.377441 165.016083 83.329529 C 164.802216 83.500183 164.828583 83.560242 164.723114 83.814102 L 164.513657 83.887787 C 163.495575 83.626892 163.520493 83.590271 162.547836 83.973618 L 162.373505 84.04393 L 162.156708 83.83226 L 162.222626 83.727661 C 162.165497 83.702042 160.016586 83.205887 159.906708 83.187729 L 159.862762 83.051208 C 159.522919 82.879669 158.494598 82.248917 158.271942 82.346771 C 157.978973 82.475525 157.746063 82.393799 157.350555 82.327148 L 157.256805 82.089981 C 156.938934 81.799789 156.250443 81.824554 155.790497 81.815323 L 155.597137 81.81311 L 155.667435 81.642761 L 155.099075 81.644531 L 155.258743 81.72084 C 154.946747 81.560883 154.870575 81.622833 154.514603 81.624603 L 154.668427 81.377197 L 154.590775 81.621094 L 154.675735 81.628845 L 154.665497 81.373535 C 154.061966 81.117767 154.646454 81.660645 153.727997 81.453506 L 154.067825 81.239792 C 153.376419 80.956482 153.241653 81.985397 151.911575 81.308777 C 151.280228 81.784561 150.158157 81.681885 149.443314 81.441498 C 150.289993 81.395493 151.454544 81.39563 152.151825 80.95166 L 152.157684 80.73645 L 151.957001 80.675079 C 151.236298 81.270386 151.048798 81.255005 149.982391 81.148376 C 148.787079 81.028687 148.226044 81.814148 147.522919 81.631775 C 147.300262 81.280502 147.213837 81.08905 146.873993 80.840759 L 146.671844 80.910767 C 146.906219 81.160233 147.095184 81.336151 147.344193 81.567017 C 146.853485 81.634842 146.257141 81.205933 146.167343 81.235092 C 145.257523 81.531433 143.616165 81.623413 142.737991 81.703247 L 142.949661 81.948898 L 142.903366 82.07869 C 142.885056 82.07724 142.463181 82.045151 142.441071 82.036209 C 141.287949 81.566132 139.082184 83.168671 137.796341 83.305939 C 137.498978 83.202515 137.248489 83.115356 137.044724 83.044617 L 135.590134 83.894073 C 133.879196 83.499588 133.980865 83.884979 132.593216 84.851486 C 131.883652 85.33606 131.250397 85.923767 130.714127 86.595093 C 130.551666 86.795776 130.669006 86.705978 130.361679 86.810272 L 130.268082 86.311951 L 130.113541 86.313553 C 129.918564 86.715652 129.556015 87.58049 129.18512 87.725372 L 129.10939 87.200378 C 128.643723 87.185867 129.003632 87.880951 128.460617 88.153107 L 128.417542 87.680389 L 128.285995 87.614029 C 127.446793 89.303589 126.8424 88.21756 126.101624 89.1763 L 126.294098 89.593323 C 125.89537 89.748169 125.725891 89.704514 125.283211 89.716522 C 125.605766 89.746109 125.924522 89.707291 126.106598 89.880142 C 125.534142 90.13092 125.477303 90.104858 124.82515 90.089172 L 124.649223 90.083313 L 124.566017 90.205917 L 124.23848 90.36792 C 123.59893 91.215057 122.025253 92.268555 121.800827 92.7379 L 121.879494 92.963043 C 121.839653 92.99498 121.79966 93.026917 121.759666 93.058853 C 120.789207 93.328674 119.101273 97.397125 118.813583 97.498779 L 118.699181 97.37384 C 118.832481 96.956802 118.924179 96.673645 119.01368 96.238281 L 118.945557 96.138245 C 118.667526 96.791992 118.696098 97.831757 118.436531 97.971771 C 118.32711 97.70929 118.275841 97.595459 118.194832 97.322571 C 118.196152 97.684235 118.23658 98.228119 118.13858 98.546143 L 117.897758 98.715042 C 117.572861 98.419861 117.71685 98.568848 117.614166 97.980423 L 117.629837 98.889801 L 117.451569 99.041992 C 117.287514 98.757233 117.32061 98.824188 117.202843 98.491669 C 117.198738 98.876328 117.191116 99.15831 117.160797 99.546204 C 115.491463 99.73999 117.127838 100.956848 114.767387 101.077545 L 114.60743 100.998169 C 116.33287 99.648163 115.79351 97.485901 116.519341 96.289581 L 116.59346 97.07048 C 116.727203 96.469757 116.830757 95.994415 117.016068 95.409348 L 117.140442 95.485382 C 117.172371 95.789185 117.20768 96.083481 117.22496 96.388748 Z"/>
    </g>
</svg>
